<svg width="514" height="48" viewBox="0 0 514 48" fill="none" xmlns="http://www.w3.org/2000/svg">
<path fill-rule="evenodd" clip-rule="evenodd" d="M35.0748 35.1405C35.4155 34.6386 35.4384 33.9793 35.1334 33.4539L16.1586 0.763164C15.884 0.290013 15.3861 0 14.8484 0H1.5261C0.348542 0 -0.38415 1.30855 0.21116 2.34841L25.1404 45.8938C25.7031 46.8767 27.072 46.9307 27.707 45.9952L35.0748 35.1405ZM69.4737 48C70.6505 48 71.3833 46.6931 70.7897 45.6533L45.1701 0.772959C44.8969 0.29427 44.3959 0 43.8542 0H30.5393C29.3618 0 28.6291 1.30855 29.2244 2.34841L54.9179 47.2287C55.1914 47.7065 55.6918 48 56.2328 48H69.4737ZM12.0331 45.2198C12.6357 46.2596 11.9035 47.5755 10.7223 47.5755H1.58714C0.745433 47.5755 0.0630988 46.8772 0.0630988 46.0157V30.2546C0.0630988 28.6685 2.10722 28.0946 2.89789 29.4588L12.0331 45.2198ZM103.842 48H95.9999V0H103.705L125.443 37.8514L147.113 0H154.818V48H146.976V16.2514L128.746 48H122.073L103.842 16.2514V48ZM203.379 48H173.042V0H203.379V7.81714H180.884V20.0914H203.379V27.9086H180.884V40.1829H203.379V48ZM233.398 48H241.24V7.81714H259.402V0H215.167V7.81714H233.398V48ZM314.873 48H306.274L302.353 39.6343H274.973L271.121 48H262.522L284.879 0H292.515L314.873 48ZM288.663 10.2171L278.619 31.8171H298.707L288.663 10.2171ZM328.454 48H336.296V32.9143H346.409C356.04 32.9143 362.988 25.9886 362.988 16.4571C362.988 6.99428 356.04 0 346.409 0H328.454V48ZM336.296 25.0971V7.81714H346.409C351.499 7.81714 355.145 11.4514 355.145 16.4571C355.145 21.4629 351.499 25.0971 346.409 25.0971H336.296ZM408.567 48H377.817V0H385.659V40.1829H408.567V48ZM422.343 48H452.681V40.1829H430.185V27.9086H452.681V20.0914H430.185V7.81714H452.681V0H422.343V48ZM475.063 48H464.95L484.419 24L464.95 0H475.063L489.509 17.76L503.956 0H514L494.531 24L514 48H503.887L489.509 30.24L475.063 48Z" fill="white"/>
</svg>
